Normalized EMG Linear Envelopes
nRows=236
nColumns=4

endheader
time	 med_gas_r	  soleus_r	 tib_ant_r	
6.3871	  0.021106	  0.063639	  0.046390	
6.42036	  0.021289	  0.064924	  0.045282	
6.45363	  0.021442	  0.065571	  0.043545	
6.4869	  0.021543	  0.065892	  0.041436	
6.52016	  0.021599	  0.065978	  0.039407	
6.55343	  0.021562	  0.065529	  0.037432	
6.58669	  0.021419	  0.064616	  0.035632	
6.61996	  0.021155	  0.063763	  0.034438	
6.65323	  0.020778	  0.063327	  0.033817	
6.68649	  0.020377	  0.063400	  0.033351	
6.71976	  0.020053	  0.063820	  0.032983	
6.75302	  0.019836	  0.064312	  0.032884	
6.78629	  0.019800	  0.064273	  0.033012	
6.81956	  0.020014	  0.063421	  0.033584	
6.85282	  0.020479	  0.061843	  0.035194	
6.88609	  0.021112	  0.059727	  0.038203	
6.91935	  0.021791	  0.057521	  0.042363	
6.95262	  0.022466	  0.055608	  0.047132	
6.98589	  0.023048	  0.054207	  0.052187	
7.01915	  0.023439	  0.053358	  0.057159	
7.05242	  0.023728	  0.052862	  0.061633	
7.08569	  0.023987	  0.052492	  0.065216	
7.11895	  0.024206	  0.052436	  0.067606	
7.15222	  0.024420	  0.052867	  0.069009	
7.18548	  0.024657	  0.053662	  0.069759	
7.21875	  0.024810	  0.054575	  0.069924	
7.25202	  0.024802	  0.055766	  0.069218	
7.28528	  0.024720	  0.057349	  0.068302	
7.31855	  0.024755	  0.059114	  0.068312	
7.35181	  0.025042	  0.060657	  0.070054	
7.38508	  0.025663	  0.061908	  0.073870	
7.41835	  0.026680	  0.063367	  0.080255	
7.45161	  0.028058	  0.065331	  0.089324	
7.48488	  0.029591	  0.067519	  0.100632	
7.51815	  0.031122	  0.069400	  0.113199	
7.55141	  0.032613	  0.070906	  0.125482	
7.58468	  0.033937	  0.071929	  0.135716	
7.61794	  0.035092	  0.072394	  0.143498	
7.65121	  0.036144	  0.072349	  0.150096	
7.68448	  0.037184	  0.071871	  0.156165	
7.71774	  0.038310	  0.070995	  0.162164	
7.75101	  0.039403	  0.069856	  0.167705	
7.78427	  0.040220	  0.069058	  0.172560	
7.81754	  0.041080	  0.069297	  0.177799	
7.85081	  0.042370	  0.070554	  0.183328	
7.88407	  0.044179	  0.072293	  0.188687	
7.91734	  0.046454	  0.074005	  0.194214	
7.9506	  0.048998	  0.075652	  0.200375	
7.98387	  0.051492	  0.077148	  0.206091	
8.01714	  0.053689	  0.078363	  0.210875	
8.0504	  0.055312	  0.079253	  0.214414	
8.08367	  0.056452	  0.080001	  0.216875	
8.11694	  0.057229	  0.081220	  0.218973	
8.1502	  0.057358	  0.083304	  0.221096	
8.18347	  0.056799	  0.086034	  0.223276	
8.21673	  0.055887	  0.088718	  0.226683	
8.25	  0.054917	  0.090748	  0.231489	
8.28327	  0.054063	  0.091721	  0.236031	
8.31653	  0.053482	  0.091786	  0.240630	
8.3498	  0.053167	  0.091468	  0.245582	
8.38306	  0.053010	  0.091408	  0.250068	
8.41633	  0.053162	  0.091771	  0.253904	
8.4496	  0.053677	  0.092351	  0.257826	
8.48286	  0.054501	  0.093390	  0.262383	
8.51613	  0.055478	  0.094914	  0.267956	
8.5494	  0.056738	  0.096829	  0.275028	
8.58266	  0.058376	  0.099274	  0.283501	
8.61593	  0.060331	  0.102102	  0.293697	
8.64919	  0.062431	  0.105411	  0.305683	
8.68246	  0.064469	  0.109001	  0.318733	
8.71573	  0.066454	  0.112711	  0.332578	
8.74899	  0.068587	  0.115998	  0.344815	
8.78226	  0.071056	  0.118123	  0.353929	
8.81552	  0.074088	  0.119374	  0.362533	
8.84879	  0.077563	  0.120397	  0.372162	
8.88206	  0.080977	  0.121479	  0.381556	
8.91532	  0.083849	  0.123047	  0.388029	
8.94859	  0.085909	  0.124935	  0.391210	
8.98185	  0.086731	  0.127184	  0.393071	
9.01512	  0.086493	  0.129955	  0.395044	
9.04839	  0.085978	  0.133131	  0.396048	
9.08165	  0.085832	  0.135925	  0.394980	
9.11492	  0.086378	  0.138429	  0.392849	
9.14819	  0.087416	  0.140619	  0.390317	
9.18145	  0.088897	  0.142362	  0.387636	
9.21472	  0.090649	  0.143867	  0.385339	
9.24798	  0.092560	  0.145474	  0.383946	
9.28125	  0.094540	  0.146822	  0.384297	
9.31452	  0.096644	  0.147666	  0.386085	
9.34778	  0.099163	  0.148346	  0.388641	
9.38105	  0.102450	  0.148430	  0.390821	
9.41431	  0.106482	  0.147656	  0.391293	
9.44758	  0.110903	  0.146315	  0.388364	
9.48085	  0.115286	  0.144454	  0.383776	
9.51411	  0.119462	  0.142715	  0.379340	
9.54738	  0.124346	  0.142310	  0.376368	
9.58065	  0.131119	  0.143952	  0.375192	
9.61391	  0.140480	  0.147692	  0.375404	
9.64718	  0.152212	  0.153044	  0.377973	
9.68044	  0.165357	  0.158882	  0.385111	
9.71371	  0.178649	  0.164542	  0.398730	
9.74698	  0.190252	  0.169922	  0.419202	
9.78024	  0.198047	  0.175309	  0.444561	
9.81351	  0.202969	  0.180468	  0.471662	
9.84677	  0.205446	  0.184410	  0.499133	
9.88004	  0.203943	  0.186307	  0.524593	
9.91331	  0.196297	  0.186411	  0.546078	
9.94657	  0.184260	  0.185201	  0.562637	
9.97984	  0.171570	  0.183377	  0.571522	
10.0131	  0.160421	  0.181116	  0.571720	
10.0464	  0.150923	  0.178818	  0.565924	
10.0796	  0.142260	  0.176786	  0.557314	
10.1129	  0.134440	  0.175438	  0.548032	
10.1462	  0.128040	  0.174860	  0.538090	
10.1794	  0.123648	  0.175521	  0.528906	
10.2127	  0.121455	  0.177477	  0.521217	
10.246	  0.121152	  0.180339	  0.515475	
10.2792	  0.122203	  0.183400	  0.513224	
10.3125	  0.124397	  0.186169	  0.514699	
10.3458	  0.127369	  0.188646	  0.518347	
10.379	  0.130671	  0.191207	  0.521813	
10.4123	  0.134547	  0.193857	  0.524473	
10.4456	  0.139126	  0.196432	  0.526756	
10.4788	  0.144131	  0.199179	  0.527953	
10.5121	  0.148864	  0.201865	  0.528745	
10.5454	  0.152531	  0.204758	  0.529456	
10.5786	  0.155100	  0.208705	  0.529602	
10.6119	  0.156257	  0.213856	  0.528495	
10.6452	  0.156110	  0.219462	  0.527982	
10.6784	  0.154802	  0.224190	  0.530435	
10.7117	  0.152464	  0.226457	  0.537836	
10.745	  0.149277	  0.226196	  0.549165	
10.7782	  0.145545	  0.224436	  0.560769	
10.8115	  0.141370	  0.222430	  0.571168	
10.8448	  0.136727	  0.220678	  0.578599	
10.878	  0.131884	  0.219089	  0.582544	
10.9113	  0.126987	  0.217827	  0.582960	
10.9446	  0.122333	  0.216264	  0.579977	
10.9778	  0.118458	  0.214517	  0.573669	
11.0111	  0.115512	  0.212986	  0.563381	
11.0444	  0.113564	  0.212213	  0.549504	
11.0776	  0.112577	  0.212596	  0.533594	
11.1109	  0.112121	  0.213830	  0.519179	
11.1442	  0.111527	  0.214862	  0.507248	
11.1774	  0.110520	  0.215073	  0.497069	
11.2107	  0.109168	  0.213694	  0.487963	
11.244	  0.107842	  0.210613	  0.479921	
11.2772	  0.107507	  0.206651	  0.474088	
11.3105	  0.109135	  0.202260	  0.471112	
11.3437	  0.112672	  0.198325	  0.471546	
11.377	  0.117452	  0.196110	  0.474745	
11.4103	  0.122165	  0.196315	  0.478035	
11.4435	  0.125729	  0.198579	  0.477984	
11.4768	  0.128099	  0.201373	  0.472756	
11.5101	  0.129414	  0.203240	  0.463302	
11.5433	  0.129715	  0.204367	  0.451103	
11.5766	  0.129116	  0.205166	  0.439042	
11.6099	  0.127829	  0.205456	  0.428941	
11.6431	  0.125761	  0.205479	  0.420808	
11.6764	  0.122803	  0.205020	  0.414412	
11.7097	  0.119385	  0.203774	  0.409956	
11.7429	  0.116088	  0.201387	  0.407237	
11.7762	  0.113056	  0.198003	  0.405808	
11.8095	  0.110301	  0.194244	  0.405918	
11.8427	  0.107770	  0.190347	  0.406892	
11.876	  0.105037	  0.186502	  0.407866	
11.9093	  0.102100	  0.182468	  0.407142	
11.9425	  0.099139	  0.178156	  0.403654	
11.9758	  0.096101	  0.173205	  0.396782	
12.0091	  0.092840	  0.166164	  0.387409	
12.0423	  0.089218	  0.156148	  0.375731	
12.0756	  0.085316	  0.144413	  0.360520	
12.1089	  0.081193	  0.133051	  0.341487	
12.1421	  0.077071	  0.123063	  0.319636	
12.1754	  0.073091	  0.114479	  0.297152	
12.2087	  0.069300	  0.107605	  0.276292	
12.2419	  0.065477	  0.102738	  0.257687	
12.2752	  0.061657	  0.099442	  0.240635	
12.3085	  0.058023	  0.097024	  0.225099	
12.3417	  0.054837	  0.095310	  0.212133	
12.375	  0.052528	  0.094044	  0.201316	
12.4083	  0.050935	  0.093038	  0.190680	
12.4415	  0.049759	  0.091962	  0.179899	
12.4748	  0.048959	  0.090960	  0.170933	
12.5081	  0.048271	  0.090333	  0.164286	
12.5413	  0.047349	  0.089974	  0.158604	
12.5746	  0.046129	  0.089501	  0.152093	
12.6079	  0.044846	  0.088643	  0.144678	
12.6411	  0.043820	  0.086869	  0.137085	
12.6744	  0.043200	  0.083730	  0.130307	
12.7077	  0.043008	  0.079917	  0.124896	
12.7409	  0.043196	  0.076515	  0.119977	
12.7742	  0.043466	  0.074257	  0.114864	
12.8075	  0.043504	  0.073493	  0.109982	
12.8407	  0.043366	  0.073971	  0.106256	
12.874	  0.043186	  0.075091	  0.104117	
12.9073	  0.043230	  0.076461	  0.103790	
12.9405	  0.043667	  0.078104	  0.104947	
12.9738	  0.044297	  0.079727	  0.106056	
13.0071	  0.044907	  0.080738	  0.105690	
13.0403	  0.045389	  0.080735	  0.103653	
13.0736	  0.045527	  0.079638	  0.100529	
13.1069	  0.045420	  0.077530	  0.096852	
13.1401	  0.045016	  0.074754	  0.092498	
13.1734	  0.044145	  0.071740	  0.087683	
13.2067	  0.042900	  0.069008	  0.083097	
13.2399	  0.041237	  0.067023	  0.078816	
13.2732	  0.038987	  0.065808	  0.074420	
13.3065	  0.036285	  0.065006	  0.069486	
13.3397	  0.033636	  0.064478	  0.064141	
13.373	  0.031373	  0.063949	  0.058588	
13.4062	  0.029453	  0.063116	  0.053156	
13.4395	  0.027786	  0.062108	  0.048514	
13.4728	  0.026325	  0.061173	  0.044934	
13.506	  0.025054	  0.060671	  0.042243	
13.5393	  0.023989	  0.060954	  0.039898	
13.5726	  0.023185	  0.062144	  0.037551	
13.6058	  0.022671	  0.064019	  0.035438	
13.6391	  0.022366	  0.066321	  0.033576	
13.6724	  0.022174	  0.068797	  0.031852	
13.7056	  0.022046	  0.071082	  0.030301	
13.7389	  0.021984	  0.072610	  0.028769	
13.7722	  0.021965	  0.073201	  0.027385	
13.8054	  0.021932	  0.073183	  0.026367	
13.8387	  0.021805	  0.073073	  0.025712	
13.872	  0.021535	  0.073030	  0.025369	
13.9052	  0.021109	  0.072531	  0.025323	
13.9385	  0.020558	  0.071132	  0.025323	
13.9718	  0.020029	  0.069053	  0.025029	
14.005	  0.019613	  0.066812	  0.024727	
14.0383	  0.019375	  0.064682	  0.024768	
14.0716	  0.019381	  0.062733	  0.025260	
14.1048	  0.019655	  0.060936	  0.026123	
14.1381	  0.020156	  0.059375	  0.027203	
14.1714	  0.020744	  0.057916	  0.028259	
14.2046	  0.021353	  0.056460	  0.029430	
